<svg xmlns="http://www.w3.org/2000/svg" viewBox="0 0 99.893 99.893"><path d="M49.946 0C22.406 0 0 22.406 0 49.946s22.406 49.946 49.946 49.946 49.946-22.406 49.946-49.946S77.487 0 49.946 0zm0 97.893C23.509 97.893 2 76.384 2 49.946S23.509 2 49.946 2s47.946 21.509 47.946 47.946-21.508 47.947-47.946 47.947z"/><path d="M66.045 28.682c-1.737-.954-3.864-.886-5.535.177l-7.079 4.478c-.365-.423-.827-.792-1.343-1.074-1.535-.842-3.343-.782-4.819.157L25.415 46.332c-1.369.872-2.189 2.361-2.188 3.983 0 1.623.816 3.112 2.186 3.983l21.848 13.894c.782.497 1.654.747 2.529.747.777 0 1.556-.197 2.277-.593.887-.487 1.558-1.214 1.974-2.076l6.377 4.055c.885.562 1.872.846 2.862.846.879 0 1.95-.223 2.766-.671 1.735-.953 2.96-2.703 2.96-4.683V33.365c0-1.98-1.225-3.731-2.961-4.683zm.961 37.136c0 1.238-.837 2.334-1.923 2.93-1.086.597-2.207.557-3.252-.109l-6.825-4.436V36.401c0-.45-.308-.886-.424-1.3l7.031-4.555c.554-.354 1.111-.53 1.731-.53.55 0 1.26.139 1.77.419 1.086.596 1.893 1.691 1.893 2.931v32.452zm-15.658.776c-.885.485-2.042.451-2.893-.089l-21.91-13.894c-.79-.502-1.291-1.36-1.291-2.296 0-.936.455-1.794 1.244-2.296l21.841-13.913c.451-.288.951-.433 1.456-.433.447 0 1.14.113 1.555.342.884.484 1.656 1.377 1.656 2.386v27.808c-.001 1.008-.774 1.899-1.658 2.385z"/></svg>