<svg xmlns="http://www.w3.org/2000/svg" viewBox="0 0 99.893 99.893"><path d="M49.946 0C22.406 0 0 22.406 0 49.946s22.406 49.946 49.946 49.946 49.946-22.406 49.946-49.946S77.486 0 49.946 0zm0 97.893C23.509 97.893 2 76.384 2 49.946S23.509 2 49.946 2s47.946 21.509 47.946 47.946-21.508 47.947-47.946 47.947z"/><path d="M74.484 46.332L52.636 32.418c-1.475-.939-3.273-.998-4.808-.156-.516.283-.954.651-1.319 1.074l-7.032-4.478c-1.672-1.063-3.909-1.132-5.643-.177-1.736.952-2.976 2.703-2.976 4.684v32.452c0 1.98 1.24 3.731 2.975 4.684.816.448 1.799.671 2.678.671.99 0 2.028-.283 2.912-.846l6.403-4.055c.416.861 1.1 1.589 1.987 2.076.722.396 1.507.593 2.285.593.875 0 1.75-.25 2.532-.747l21.851-13.894c1.369-.871 2.187-2.36 2.188-3.983 0-1.624-.816-3.113-2.185-3.984zm-1.075 6.279L51.561 66.505c-.853.541-1.647.574-2.531.089s-1.171-1.377-1.171-2.385V36.401c0-1.009.288-1.9 1.172-2.386.416-.229.745-.342 1.192-.342.505 0 .948.145 1.399.432L73.44 48.02c.801.51 1.245 1.346 1.245 2.295 0 .935-.487 1.794-1.276 2.296zM38.642 68.639c-1.043.664-2.641.706-3.725.109-1.086-.596-2.058-1.691-2.058-2.931V33.365c0-1.239.852-2.335 1.938-2.931.511-.28 1.163-.419 1.713-.419.62 0 1.289.177 1.843.53l7.419 4.555c-.116.415.087.85.087 1.3v27.801l-7.217 4.438z"/></svg>