<svg xmlns="http://www.w3.org/2000/svg" viewBox="0 0 99.893 99.893"><path d="M49.946 0C22.406 0 0 22.406 0 49.946s22.406 49.946 49.946 49.946 49.946-22.406 49.946-49.946S77.486 0 49.946 0zm0 97.893C23.509 97.893 2 76.384 2 49.946S23.509 2 49.946 2s47.946 21.509 47.946 47.946-21.508 47.947-47.946 47.947z"/><path d="M29.864 42.656c-4.161 0-7.547 3.386-7.547 7.547s3.386 7.547 7.547 7.547 7.547-3.386 7.547-7.547-3.386-7.547-7.547-7.547zm0 13.094c-3.059 0-5.547-2.488-5.547-5.547s2.488-5.547 5.547-5.547 5.547 2.488 5.547 5.547-2.488 5.547-5.547 5.547zm20.404-13.519c-4.161 0-7.547 3.386-7.547 7.547s3.386 7.547 7.547 7.547 7.547-3.386 7.547-7.547-3.386-7.547-7.547-7.547zm0 13.094c-3.059 0-5.547-2.488-5.547-5.547s2.488-5.547 5.547-5.547 5.547 2.488 5.547 5.547-2.489 5.547-5.547 5.547zm19.506-13.094c-4.161 0-7.547 3.386-7.547 7.547s3.386 7.547 7.547 7.547 7.547-3.386 7.547-7.547-3.385-7.547-7.547-7.547zm-5.546 7.547c0-3.059 2.488-5.547 5.547-5.547s5.547 2.488 5.547 5.547-2.488 5.547-5.547 5.547-5.547-2.488-5.547-5.547z"/></svg>