<svg xmlns="http://www.w3.org/2000/svg" viewBox="0 0 99.894 99.894"><path d="M49.947 0C22.406 0 0 22.406 0 49.947s22.406 49.946 49.947 49.946c27.54 0 49.946-22.406 49.946-49.946S77.487 0 49.947 0zm0 97.893C23.509 97.893 2 76.385 2 49.947S23.509 2 49.947 2c26.438 0 47.946 21.509 47.946 47.947.001 26.438-21.508 47.946-47.946 47.946z"/><path d="M66.105 29.968h-.782c-2.67 0-4.554 2.186-4.554 4.856v12.169c-1-.243-.659-.467-.958-.658l-23.109-14.67c-1.536-.979-3.594-1.042-5.194-.164-1.601.878-2.738 2.492-2.738 4.317v29.319c0 1.824 1.102 3.438 2.7 4.315.752.413 1.638.618 2.447.618.913 0 1.859-.261 2.673-.779l23.201-14.649c.3-.191-.022-.416.978-.659V65.07c0 2.67 1.884 4.898 4.554 4.898h.782c2.67 0 4.664-2.228 4.664-4.898V34.824c.001-2.67-1.994-4.856-4.664-4.856zm2.665 35.157c0 1.57-1.273 2.843-2.843 2.843h-.314c-1.57 0-2.843-1.273-2.843-2.843V34.811c0-1.57 1.273-2.843 2.843-2.843h.314c1.57 0 2.843 1.273 2.843 2.843v30.314zm-36.337 2.574c-.949-.521-1.663-1.479-1.663-2.562V35.818c0-1.084.714-2.042 1.664-2.563.446-.245 1.001-.367 1.481-.367.542 0 1.12.155 1.604.464l23.055 14.67c.848.54 1.363 1.462 1.362 2.467 0 1.005-.501 1.927-1.349 2.466L35.478 67.604c-.912.58-2.096.617-3.045.095z"/></svg>