<svg xmlns="http://www.w3.org/2000/svg" viewBox="0 0 99.894 99.894"><path d="M49.947 0C22.406 0 0 22.407 0 49.947s22.406 49.946 49.947 49.946c27.54 0 49.946-22.406 49.946-49.946S77.487 0 49.947 0zm0 97.893C23.509 97.893 2 76.384 2 49.947S23.509 2 49.947 2c26.438 0 47.946 21.509 47.946 47.946S76.385 97.893 49.947 97.893z"/><path d="M74.116 38.156c-.511-.202-1.095.041-1.302.554l-.987 2.448c-1.758-4.845-5.054-8.94-9.504-11.693-5.23-3.237-11.41-4.242-17.397-2.832-8.607 2.028-15.317 8.288-17.511 16.336-.146.532.169 1.082.702 1.228.526.146 1.082-.168 1.228-.702 2-7.34 8.146-13.055 16.04-14.914 5.469-1.29 11.109-.369 15.886 2.585 4.139 2.561 7.198 6.384 8.78 10.914l-2.693-1.348c-.493-.245-1.094-.047-1.342.447-.247.493-.047 1.095.447 1.342l4.739 2.372c.015.008.033.005.049.012.04.023.07.058.114.075.123.049.249.072.374.072.396 0 .771-.236.928-.626l2.003-4.968c.206-.513-.042-1.095-.554-1.302zm-2.384 17.96c-.532-.141-1.083.166-1.229.7-2.012 7.337-8.168 13.042-16.063 14.888-5.47 1.279-11.109.352-15.883-2.612-4.134-2.566-7.187-6.395-8.761-10.929l2.69 1.353c.497.248 1.095.049 1.343-.444s.049-1.095-.444-1.343l-4.735-2.38c-.02-.01-.043-.013-.064-.021-.035-.02-.061-.05-.099-.066-.513-.207-1.096.039-1.303.551l-2.012 4.964c-.207.513.039 1.096.551 1.303.123.05.251.073.376.073.395 0 .77-.235.927-.624l.992-2.448c1.75 4.849 5.039 8.95 9.485 11.71 3.693 2.294 7.862 3.474 12.105 3.474 1.759 0 3.531-.202 5.287-.613 8.611-2.013 15.331-8.261 17.538-16.306.145-.534-.168-1.084-.701-1.23z"/></svg>