<svg xmlns="http://www.w3.org/2000/svg" viewBox="0 0 100.021 100.021"><path d="M50.011 0C22.435 0 0 22.435 0 50.01c0 27.576 22.435 50.011 50.011 50.011s50.011-22.435 50.011-50.011C100.021 22.435 77.587 0 50.011 0zm0 98.021C23.537 98.021 2 76.484 2 50.01S23.537 2 50.011 2s48.011 21.537 48.011 48.01-21.538 48.011-48.011 48.011z"/><path d="M45.893 35.654c0-2.761-2.239-5-5-5h-7c-2.761 0-5 2.239-5 5v31c0 2.761 2.239 5 5 5h7c2.761 0 5-2.239 5-5v-31zm-2 31c0 1.657-1.343 3-3 3h-7c-1.657 0-3-1.343-3-3v-31c0-1.657 1.343-3 3-3h7c1.657 0 3 1.343 3 3v31zm27-31c0-2.761-2.239-5-5-5h-7c-2.761 0-5 2.239-5 5v31c0 2.761 2.239 5 5 5h7c2.761 0 5-2.239 5-5v-31zm-2 31c0 1.657-1.343 3-3 3h-7c-1.657 0-3-1.343-3-3v-31c0-1.657 1.343-3 3-3h7c1.657 0 3 1.343 3 3v31z"/></svg>