<svg xmlns="http://www.w3.org/2000/svg" viewBox="0 0 99.893 99.893"><path d="M49.946 0C22.406 0 0 22.406 0 49.946s22.406 49.946 49.946 49.946 49.946-22.406 49.946-49.946S77.487 0 49.946 0zm0 97.893C23.509 97.893 2 76.384 2 49.946S23.509 2 49.946 2s47.946 21.509 47.946 47.946-21.508 47.947-47.946 47.947z"/><path d="M70.964 31.818v-2.456c0-1.569-.939-3.007-2.197-3.945-1.257-.938-2.951-1.221-4.454-.774l-24.674 7.275c-2.074.615-3.675 2.557-3.675 4.72v30.809c-1.144-1.012-2.642-1.632-4.285-1.632-3.573 0-6.48 2.907-6.48 6.48s2.907 6.48 6.48 6.48 6.48-2.907 6.48-6.48c0-.535-.072-1.051-.195-1.549V45.539l31-9.197v21.03c-1.19-1.387-2.95-2.27-4.917-2.27-3.573 0-6.48 2.907-6.48 6.48s2.907 6.48 6.48 6.48c3.271 0 5.976-2.438 6.412-5.591.296-.174.504-.482.504-.85v-29c.001-.337.001-.622.001-.803zM31.679 76.774c-2.471 0-4.48-2.01-4.48-4.48s2.01-4.48 4.48-4.48c2.039 0 3.745 1.378 4.285 3.245v1.563c0 .163.048.31.117.446-.369 2.101-2.196 3.706-4.402 3.706zm37.285-42.389l-31 9.01v-6.757c0-1.285.958-2.438 2.189-2.803l24.571-7.275c.278-.082.585-.123.865-.123.62 0 1.456.199 1.97.583.747.558 1.405 1.411 1.405 2.343v5.022zm-9.397 27.198c0-2.471 2.01-4.48 4.48-4.48s4.48 2.01 4.48 4.48c0 2.47-2.01 4.48-4.48 4.48s-4.48-2.01-4.48-4.48z"/></svg>