<svg xmlns="http://www.w3.org/2000/svg" viewBox="0 0 99.893 99.893"><path d="M73.98 53.416c-.552 0-1-.448-1-1 0-14.95-10.233-27.112-22.811-27.112S27.36 37.466 27.36 52.416c0 .552-.448 1-1 1s-1-.448-1-1c0-16.052 11.13-29.112 24.81-29.112 13.681 0 24.811 13.06 24.811 29.112-.001.552-.449 1-1.001 1z"/><path d="M75.075 68.144c-.844 0-1.668-.295-2.331-.856-.929-.787-1.392-1.979-1.239-3.187l1.548-12.182c.157-1.234.925-2.283 2.054-2.807 1.129-.521 2.426-.431 3.469.247 3.273 2.127 4.987 5.994 4.473 10.093-.52 4.141-3.174 7.412-6.927 8.539-.345.102-.698.153-1.047.153zm1.549-17.37c-.227 0-.456.05-.675.152-.508.236-.84.689-.911 1.244L73.49 64.352c-.069.542.13 1.056.547 1.409.424.359.974.473 1.51.312 2.983-.895 5.097-3.528 5.517-6.872.418-3.332-.953-6.461-3.578-8.167-.267-.172-.563-.26-.862-.26z"/><path d="M49.947 99.893C22.406 99.893 0 77.487 0 49.947S22.406 0 49.947 0s49.946 22.406 49.946 49.947-22.406 49.946-49.946 49.946zm0-97.893C23.509 2 2 23.509 2 49.947c0 26.438 21.509 47.946 47.946 47.946s47.946-21.509 47.946-47.946C97.893 23.509 76.384 2 49.947 2z"/><path d="M25.517 69.36c-.35 0-.702-.051-1.047-.154-3.752-1.126-6.407-4.397-6.927-8.538-.515-4.099 1.199-7.966 4.473-10.093 1.044-.677 2.34-.77 3.469-.246 1.129.523 1.897 1.573 2.054 2.807l1.548 12.181c.153 1.209-.31 2.4-1.239 3.188-.663.559-1.487.855-2.331.855zm-1.549-17.37c-.299 0-.595.088-.862.261-2.626 1.707-3.997 4.836-3.579 8.167.42 3.343 2.534 5.976 5.517 6.871.537.161 1.086.046 1.51-.312.417-.354.616-.867.547-1.41l-1.548-12.181c-.07-.555-.402-1.008-.911-1.244-.217-.101-.446-.152-.674-.152z"/></svg>