<svg xmlns="http://www.w3.org/2000/svg" viewBox="0 0 99.894 99.894"><path d="M49.947 0C22.406 0 0 22.406 0 49.946c0 27.541 22.406 49.947 49.947 49.947s49.946-22.406 49.946-49.947C99.893 22.406 77.488 0 49.947 0zm0 97.894C23.509 97.894 2 76.385 2 49.946 2 23.509 23.509 2 49.947 2c26.438 0 47.946 21.509 47.946 47.946 0 26.439-21.508 47.948-47.946 47.948z"/><path d="M57.226 28.641c-1.601-.877-3.532-.817-5.071.163L28.932 43.641c-.84-.667-1.917-1.015-3.071-1.015H24.59c-2.715 0-4.694 2.074-4.694 4.789v6.11c0 2.715 1.979 5.101 4.694 5.101h1.271c1.321 0 2.517-.618 3.402-1.468L52.1 71.636c.815.519 1.725.757 2.638.757.81 0 1.738-.216 2.489-.629 1.599-.878 2.669-2.502 2.669-4.326v-34.48c0-1.826-1.07-3.439-2.67-4.317zm.67 38.797c0 1.083-.682 2.041-1.631 2.562-.951.521-2.12.484-3.034-.096l-22.745-14.48c.245-.585.409-1.226.409-1.898v-6.11c0-.831-.282-1.603-.647-2.29l22.951-14.634c.485-.309 1.011-.464 1.554-.464.48 0 1.071.122 1.517.367.95.521 1.625 1.479 1.625 2.562v34.481zM28.897 53.702c0 1.615-1.309 2.924-2.923 2.924h-1.153c-1.615 0-2.923-1.309-2.923-2.924V47.55c0-1.615 1.309-2.924 2.923-2.924h1.153c1.615 0 2.923 1.309 2.923 2.924v6.152zm36.999-19.089v2c7 0 12.812 5.957 12.812 13.857s-5.812 13.857-12.812 13.857v2c8 0 14.812-6.817 14.812-15.857s-6.812-15.857-14.812-15.857z"/><path d="M72.982 50.471c0-4.303-3.086-7.547-7.086-7.547v2c2 0 5.086 2.385 5.086 5.547s-3.086 5.547-5.086 5.547v2c4 0 7.086-3.245 7.086-7.547z"/></svg>