<?xml version="1.0" encoding="iso-8859-1"?>
<!-- Generator: Adobe Illustrator 19.0.0, SVG Export Plug-In . SVG Version: 6.00 Build 0)  -->
<svg version="1.1" id="Capa_1" xmlns="http://www.w3.org/2000/svg" xmlns:xlink="http://www.w3.org/1999/xlink" x="0px" y="0px"
	 viewBox="0 0 539.077 539.077" style="enable-background:new 0 0 539.077 539.077;" xml:space="preserve">
<g>
	<g>
		<path d="M56.154,404.308C25.192,404.308,0,379.126,0,348.154S25.192,292,56.154,292c6.208,0,11.231,5.023,11.231,11.231
			s-5.023,11.231-11.231,11.231c-18.579,0-33.692,15.113-33.692,33.692c0,18.579,15.113,33.692,33.692,33.692
			c6.208,0,11.231,5.023,11.231,11.231C67.385,399.285,62.361,404.308,56.154,404.308z"/>
		<path d="M146,471.692h-44.923c-30.961,0-56.154-25.182-56.154-56.154V280.769c0-30.961,25.192-56.154,56.154-56.154H146
			c6.208,0,11.231,5.023,11.231,11.231v224.615C157.231,466.669,152.208,471.692,146,471.692z M101.077,247.077
			c-18.579,0-33.692,15.113-33.692,33.692v134.769c0,18.579,15.113,33.692,33.692,33.692h33.692V247.077H101.077z M482.923,404.308
			c-6.208,0-11.231-5.023-11.231-11.231c0-6.208,5.023-11.231,11.231-11.231c18.579,0,33.692-15.113,33.692-33.692
			c0-18.579-15.113-33.692-33.692-33.692c-6.208,0-11.231-5.023-11.231-11.231S476.715,292,482.923,292
			c30.972,0,56.154,25.181,56.154,56.154S513.895,404.308,482.923,404.308z"/>
		<path d="M438,471.692h-44.923c-6.208,0-11.231-5.023-11.231-11.231V235.846c0-6.208,5.023-11.231,11.231-11.231H438
			c30.972,0,56.154,25.192,56.154,56.154v134.769C494.154,446.511,468.972,471.692,438,471.692z M404.308,449.231H438
			c18.579,0,33.692-15.113,33.692-33.692V280.769c0-18.579-15.113-33.692-33.692-33.692h-33.692V449.231z"/>
		<path d="M438,235.846h-22.462c0-80.502-65.498-146-146-146s-146,65.498-146,146h-22.462c0-92.895,75.566-168.462,168.462-168.462
			S438,142.951,438,235.846z"/>
	</g>
</g>
<g>
</g>
<g>
</g>
<g>
</g>
<g>
</g>
<g>
</g>
<g>
</g>
<g>
</g>
<g>
</g>
<g>
</g>
<g>
</g>
<g>
</g>
<g>
</g>
<g>
</g>
<g>
</g>
<g>
</g>
</svg>
