<svg xmlns="http://www.w3.org/2000/svg" viewBox="0 0 99.893 99.893"><path d="M49.946 0C22.406 0 0 22.406 0 49.946s22.406 49.946 49.946 49.946 49.946-22.406 49.946-49.946S77.487 0 49.946 0zm0 97.893C23.509 97.893 2 76.384 2 49.946S23.509 2 49.946 2s47.946 21.509 47.946 47.946-21.508 47.947-47.946 47.947z"/><path d="M62.413 44.711v22.726c0 1.083-.489 2.041-1.438 2.562-.949.521-2.023.484-2.937-.096l-12.784-8.142-1.452 1.441 13.196 8.388c.816.519 1.728.779 2.64.779.81 0 1.546-.205 2.298-.618 1.599-.878 2.476-2.491 2.476-4.315V42.74l-1.999 1.971zm11.782-15.438c.14-.138.212-.309.254-.487.075-.323.006-.673-.244-.927-.387-.393-1.099-.398-1.492-.01l-8.299 8.105v-2.997c0-1.825-.877-3.438-2.477-4.316-1.6-.877-3.435-.816-4.974.163L33.788 43.37c-.84-.667-1.869-1.288-3.023-1.288h-1.271c-2.715 0-5.081 2.618-5.081 5.333v6.11c0 2.715 2.366 4.557 5.081 4.557h1.271c1.321 0 2.516-.346 3.401-1.196l5.462 3.565-14.277 14.121c-.393.388-.397 1.043-.01 1.437.195.198.454.309.712.309.253 0 .507-.09.702-.282l.098-.093 47.342-46.67zM33.413 53.159c0 1.614-1.309 2.923-2.923 2.923h-1.153c-1.615 0-2.923-1.309-2.923-2.923v-6.154c0-1.614 1.309-2.923 2.923-2.923h1.153c1.615 0 2.923 1.309 2.923 2.923v6.154zm1.546-8.034l23.048-14.634c.484-.309 1.059-.464 1.602-.464.48 0 .902.122 1.348.366.95.521 1.456 1.479 1.456 2.563v4.969L41.012 59.102l-5.883-3.678c.245-.585.284-1.226.284-1.899v-6.11c0-.831-.089-1.603-.454-2.29z"/></svg>