<svg xmlns="http://www.w3.org/2000/svg" viewBox="0 0 99.893 99.893"><path d="M49.947 0C22.406 0 0 22.406 0 49.947s22.406 49.946 49.946 49.946 49.946-22.406 49.946-49.946S77.487 0 49.947 0zm0 97.893C23.509 97.893 2 76.384 2 49.947 2 23.509 23.509 2 49.947 2s47.946 21.509 47.946 47.947c0 26.437-21.509 47.946-47.946 47.946z"/><path d="M70.898 45.808L43.496 28.357c-1.538-.98-3.58-1.041-5.179-.163-1.6.878-2.721 2.492-2.721 4.316v34.875c0 1.824 1.121 3.438 2.72 4.316.752.413 1.647.618 2.458.618.913 0 1.863-.261 2.679-.779l27.423-17.426c1.428-.908 2.291-2.46 2.292-4.153 0-1.691-.842-3.244-2.27-4.153zm-1.075 6.62L42.42 69.854c-.915.582-2.192.617-3.142.096-.95-.521-1.683-1.479-1.683-2.563V32.511c0-1.083.733-2.042 1.683-2.563.446-.245 1.011-.367 1.492-.367.542 0 1.125.155 1.609.463l27.423 17.45c.848.54 1.364 1.462 1.363 2.467.002 1.006-.494 1.927-1.342 2.467z"/></svg>