<svg xmlns="http://www.w3.org/2000/svg" viewBox="0 0 100.021 100.021"><path d="M50.011 0C22.435 0 0 22.435 0 50.011s22.435 50.011 50.011 50.011 50.011-22.435 50.011-50.011S77.587 0 50.011 0zm0 98.021C23.538 98.021 2 76.484 2 50.011S23.538 2 50.011 2s48.011 21.537 48.011 48.011-21.538 48.01-48.011 48.01z"/><path d="M70.072 35.899c0-2.761-2.239-5-5-5h-30c-2.761 0-5 2.239-5 5v30c0 2.761 2.239 5 5 5h30c2.761 0 5-2.239 5-5v-30zm-2 30c0 1.657-1.343 3-3 3h-30c-1.657 0-3-1.343-3-3v-30c0-1.657 1.343-3 3-3h30c1.657 0 3 1.343 3 3v30z"/></svg>