<svg xmlns="http://www.w3.org/2000/svg" viewBox="0 0 99.893 99.893"><path d="M49.947 0C22.406 0 0 22.406 0 49.947s22.406 49.946 49.947 49.946 49.946-22.406 49.946-49.946S77.487 0 49.947 0zm0 97.893C23.509 97.893 2 76.384 2 49.947 2 23.509 23.509 2 49.947 2c26.438 0 47.946 21.509 47.946 47.947 0 26.437-21.509 47.946-47.946 47.946z"/><path d="M68.308 31.5c-1.599-.876-3.49-.816-5.029.164l-22.803 14.67c-.3.191-.581.416-.581.659V34.824c0-2.67-2.655-5.326-5.326-5.326h-.782c-2.67 0-4.893 2.655-4.893 5.326V65.07c0 2.67 2.222 4.429 4.893 4.429h.782c2.67 0 5.326-1.758 5.326-4.429V53.982c0 .244.274.469.575.66l22.916 14.649c.815.519 1.665.779 2.577.779.81 0 1.625-.205 2.377-.618 1.599-.878 2.555-2.491 2.555-4.315v-29.32c.001-1.825-.987-3.439-2.587-4.317zm.588 33.637c0 1.083-.599 2.041-1.548 2.562-.95.521-2.079.485-2.992-.096L41.31 52.954c-.848-.54-1.359-1.461-1.359-2.466 0-1.005.504-1.927 1.352-2.467l23.036-14.67c.485-.309 1.024-.464 1.567-.464.48 0 .995.122 1.441.367.95.521 1.549 1.479 1.549 2.563v29.32zm-32-.482c0 1.57-1.273 2.843-2.843 2.843h-.314c-1.57 0-2.843-1.273-2.843-2.843V34.341c0-1.57 1.273-2.843 2.843-2.843h.314c1.57 0 2.843 1.273 2.843 2.843v30.314z"/></svg>