<svg xmlns="http://www.w3.org/2000/svg" viewBox="0 0 99.894 99.894"><path d="M49.946 0C22.406 0 0 22.407 0 49.947s22.406 49.946 49.946 49.946c27.541 0 49.947-22.406 49.947-49.946S77.487 0 49.946 0zm0 97.893C23.509 97.893 2 76.384 2 49.947S23.509 2 49.946 2c26.438 0 47.947 21.509 47.947 47.946S76.385 97.893 49.946 97.893z"/><path d="M75.333 34.56c-.087-.181-.226-.324-.392-.423l-2.582-3.312c-.34-.436-.969-.513-1.404-.174-.436.34-.513.969-.174 1.404l1.512 1.939h-9.838c-.292 0-.57.128-.76.351l-12.06 14.111-12.913-15.111c-.189-.223-.468-.351-.76-.351h-9.681c-.553 0-1 .447-1 1s.447 1 1 1h9.22l12.819 15-12.819 15h-9.22c-.553 0-1 .447-1 1s.447 1 1 1h9.681c.292 0 .57-.128.76-.351l12.914-15.111 12.059 14.111c.189.223.468.351.76.351h9.925l-1.596 2.026c-.341.435-.267 1.063.167 1.405.184.144.402.214.618.214.296 0 .589-.131.787-.381l2.757-3.501c.017-.022.021-.049.036-.072.073-.075.137-.16.185-.257.167-.346.121-.757-.117-1.057l-2.932-3.688c-.345-.433-.974-.504-1.405-.161-.433.344-.504.974-.161 1.405l1.643 2.065h-9.445l-11.965-14 11.965-14h9.445l-1.643 2.065c-.343.432-.271 1.062.161 1.405.433.343 1.061.272 1.405-.161l2.661-3.347c.034-.02.071-.031.103-.055.246-.192.363-.476.371-.765.026-.19.001-.391-.087-.574z"/></svg>