<svg xmlns="http://www.w3.org/2000/svg" viewBox="0 0 87 87"><path d="M23.761 47.307l.123-29.732c.002-.553-.443-1.075-.996-1.075h-.004c-.551 0-.998.515-1 1.067L21.76 47.31c-3.571.544-6.318 3.644-6.318 7.364 0 3.7 2.718 6.778 6.261 7.346l-.034 8.528c-.002.552.443.951.996.951h.004c.551 0 .998-.388 1-.939l.034-8.505c3.718-.41 6.621-3.553 6.621-7.378 0-3.805-2.873-6.934-6.563-7.37zm-6.319 7.385c0-3 2.441-5.441 5.441-5.441s5.44 2.441 5.44 5.441-2.44 5.44-5.44 5.44-5.441-2.44-5.441-5.44zm27.733-28.139l.035-8.234c.002-.552-.443-.819-.996-.819h-.004c-.551 0-.998.26-1 .811l-.035 8.318c-3.655.469-6.491 3.547-6.491 7.327 0 3.76 2.805 6.846 6.431 7.341l-.12 30.012c-.002.552.443 1.19.996 1.19h.004c.551 0 .998-.643 1-1.194l.12-29.929c3.636-.487 6.451-3.65 6.451-7.417 0-3.745-2.784-6.893-6.391-7.406zm-1.05 12.799c-3 0-5.44-2.441-5.44-5.441s2.44-5.441 5.44-5.441 5.441 2.441 5.441 5.441-2.441 5.441-5.441 5.441zm21.947-1.354l.08-19.532c.002-.552-.443-.967-.996-.967h-.004c-.551 0-.998.407-1 .959l-.08 19.544c-3.653.47-6.488 3.584-6.488 7.364 0 3.759 2.804 6.862 6.428 7.359l-.073 17.916c-.002.552.443.859.996.859h.004c.551 0 .998-.302 1-.853l.073-17.994c3.637-.485 6.454-3.564 6.454-7.332.001-3.747-2.785-6.811-6.394-7.323zm-1.047 12.8c-3 0-5.44-2.441-5.44-5.441s2.44-5.441 5.44-5.441 5.441 2.441 5.441 5.441-2.441 5.441-5.441 5.441z"/><path d="M87 17.5c0-9.389-7.611-17-17-17H17C7.611.5 0 8.111 0 17.5v52c0 9.389 7.611 17 17 17h53c9.389 0 17-7.611 17-17v-52zm-2 52c0 8.284-6.716 15-15 15H17c-8.284 0-15-6.716-15-15v-52c0-8.284 6.716-15 15-15h53c8.284 0 15 6.716 15 15v52z"/></svg>